<svg width="132" height="40" viewBox="0 0 132 40" fill="none" xmlns="http://www.w3.org/2000/svg">
<g clip-path="url(#clip0_867_2412)">
<path d="M41.9628 13.8314V29.6767H39.0103V20.9536L28.1846 31.783V27.6097L41.9628 13.8314Z" fill="#FFC717"/>
<path d="M46.2014 12.9852V15.9377H43.248V12.9852H46.2014ZM46.2014 16.9219V29.715H43.248V16.9219H46.2014Z" fill="#FFC717"/>
<path d="M47.4873 22.8268C47.4873 20.9243 48.1599 19.3005 49.505 17.9554C50.8501 16.6102 52.4739 15.9377 54.3764 15.9377V18.8902C53.8593 18.8894 53.3472 18.9908 52.8694 19.1884C52.3915 19.386 51.9574 19.676 51.5918 20.0417C51.2263 20.4074 50.9365 20.8417 50.7391 21.3196C50.5418 21.7975 50.4407 22.3097 50.4416 22.8268V29.7159H47.4873V22.8268Z" fill="#FFC717"/>
<path d="M57.8099 22.8268V29.7159H54.8574V22.8268C54.8574 20.9243 55.53 19.3005 56.8751 17.9554C58.2202 16.6102 59.844 15.9377 61.7465 15.9377C63.6491 15.9377 65.2729 16.6102 66.618 17.9554C67.9631 19.3005 68.6357 20.9243 68.6357 22.8268V29.7159H65.6832V22.8268C65.6832 22.3098 65.5814 21.7979 65.3835 21.3203C65.1857 20.8427 64.8957 20.4087 64.5302 20.0432C64.1646 19.6776 63.7306 19.3877 63.253 19.1898C62.7754 18.992 62.2635 18.8902 61.7465 18.8902C61.2296 18.8902 60.7177 18.992 60.2401 19.1898C59.7624 19.3877 59.3285 19.6776 58.9629 20.0432C58.5974 20.4087 58.3074 20.8427 58.1096 21.3203C57.9117 21.7979 57.8099 22.3098 57.8099 22.8268Z" fill="#FFC717"/>
<path d="M72.8743 12.9852V15.9377H69.9209V12.9852H72.8743ZM72.8743 16.9219V29.715H69.9209V16.9219H72.8743Z" fill="#FFC717"/>
<path d="M74.1602 22.8268C74.1602 20.9243 74.8327 19.3005 76.1778 17.9554C77.5229 16.6102 79.1483 15.9377 81.0539 15.9377V18.8902C80.5366 18.8892 80.0243 18.9904 79.5462 19.1879C79.0682 19.3854 78.6338 19.6753 78.2681 20.041C77.9023 20.4068 77.6124 20.8411 77.4149 21.3192C77.2174 21.7972 77.1162 22.3096 77.1172 22.8268V29.7159H74.1602V22.8268Z" fill="#FFC717"/>
<path d="M93.2909 17.9554C94.6366 19.3005 95.3095 20.9243 95.3095 22.8268C95.3095 24.7293 94.6369 26.3532 93.2918 27.6983C91.9467 29.0434 90.3229 29.7159 88.4204 29.7159C86.5178 29.7159 84.894 29.0434 83.5489 27.6983C82.2038 26.3544 81.5312 24.7306 81.5312 22.8268C81.5312 20.9231 82.2038 19.2992 83.5489 17.9554C84.8934 16.6102 86.5172 15.9377 88.4204 15.9377C90.3235 15.9377 91.947 16.6102 93.2909 17.9554ZM88.4195 18.8902C87.6406 18.8905 86.8793 19.1216 86.2318 19.5545C85.5843 19.9873 85.0796 20.6024 84.7815 21.3219C84.4834 22.0415 84.4054 22.8333 84.5571 23.5972C84.7089 24.3611 85.0837 25.0629 85.6342 25.6139C86.0002 25.9799 86.4347 26.2702 86.9129 26.4683C87.3911 26.6664 87.9037 26.7683 88.4213 26.7683C88.9389 26.7683 89.4514 26.6664 89.9297 26.4683C90.4079 26.2702 90.8424 25.9799 91.2084 25.6139C91.5744 25.2479 91.8647 24.8134 92.0628 24.3352C92.2609 23.857 92.3628 23.3444 92.3628 22.8268C92.3628 22.3092 92.2609 21.7967 92.0628 21.3184C91.8647 20.8402 91.5744 20.4057 91.2084 20.0397C90.8468 19.6676 90.4128 19.3736 89.9331 19.1759C89.4534 18.9781 88.9382 18.8809 88.4195 18.8902Z" fill="#FFC717"/>
<path d="M95.788 12.9852H98.7405V17.1585C99.8827 16.3453 101.195 15.9383 102.677 15.9377C104.58 15.9377 106.203 16.6103 107.549 17.9554C108.894 19.3005 109.566 20.9243 109.564 22.8268C109.564 24.7306 108.892 26.3544 107.547 27.6983C106.202 29.0422 104.578 29.7147 102.675 29.716C100.773 29.716 99.1489 29.0434 97.8038 27.6983C96.4587 26.3532 95.7861 24.7294 95.7861 22.8268L95.788 12.9852ZM99.8918 20.0398C99.2454 20.6843 98.8425 21.5332 98.7519 22.4416C98.6612 23.35 98.8885 24.2617 99.3948 25.0213C99.9012 25.781 100.655 26.3414 101.529 26.6072C102.402 26.873 103.341 26.8276 104.184 26.4789C105.028 26.1301 105.725 25.4995 106.155 24.6946C106.586 23.8897 106.724 22.9604 106.547 22.0649C106.369 21.1695 105.886 20.3634 105.18 19.7842C104.475 19.2049 103.59 18.8883 102.677 18.8884C102.159 18.8798 101.644 18.9776 101.165 19.1756C100.686 19.3737 100.253 19.6678 99.8918 20.0398Z" fill="#FFC717"/>
<path d="M120.42 25.2877H123.795C123.446 26.1957 122.906 27.0178 122.211 27.6983C120.866 29.0434 119.242 29.7159 117.339 29.7159C115.437 29.7159 113.813 29.0434 112.468 27.6983C111.123 26.3544 110.45 24.7306 110.45 22.8268C110.45 20.9231 111.123 19.2992 112.468 17.9554C113.813 16.6102 115.437 15.9377 117.339 15.9377C119.242 15.9377 120.866 16.6102 122.211 17.9554C123.556 19.3005 124.228 20.9243 124.228 22.8268C124.23 23.3228 124.18 23.8177 124.08 24.3035H113.677C113.876 24.7961 114.175 25.2422 114.554 25.6139C115.294 26.3523 116.296 26.767 117.341 26.767C118.386 26.767 119.389 26.3523 120.128 25.6139C120.23 25.5079 120.327 25.3992 120.42 25.2877ZM121 21.351C120.801 20.859 120.503 20.4132 120.125 20.0416C119.385 19.3032 118.383 18.8885 117.338 18.8885C116.292 18.8885 115.29 19.3032 114.55 20.0416C114.171 20.4131 113.873 20.8589 113.674 21.351H121Z" fill="#FFC717"/>
<path d="M125.111 12.9852H128.064V15.9377H132V18.8902H128.064V22.8268C128.063 23.3441 128.164 23.8564 128.362 24.3345C128.559 24.8125 128.849 25.2469 129.215 25.6126C129.58 25.9784 130.015 26.2683 130.493 26.4658C130.971 26.6633 131.483 26.7644 132 26.7635V29.716C130.098 29.716 128.474 29.0434 127.129 27.6983C125.784 26.3532 125.111 24.7294 125.111 22.8268V12.9852Z" fill="#FFC717"/>
<path d="M36.8782 10.729L9.9668 0.301697L9.61407 13.4988L0 17.0726L8.81724 26.0973L2.2845 39.6983L3.70637 38.6593L36.8197 11.6931L37.5507 10.9877L36.8782 10.729ZM10.8121 26.6291L25.3945 18.2222L7.84953 32.6364L10.8121 26.6291ZM26.7067 15.1336L10.2154 24.6371L5.17667 19.4778L9.95309 20.8229L26.7067 15.1336ZM9.5565 15.6818L9.47883 18.5914L5.06975 17.3459L9.5565 15.6818ZM11.4627 18.4753L11.9068 3.22585L32.321 11.1366L11.4627 18.4753Z" fill="#FFC717"/>
</g>
<defs>
<clipPath id="clip0_867_2412">
<rect width="132" height="39.3966" fill="white" transform="translate(0 0.301697)"/>
</clipPath>
</defs>
</svg>
