<svg width="120" height="22" viewBox="0 0 120 22" fill="none" xmlns="http://www.w3.org/2000/svg">
<g clip-path="url(#clip0_388_87)">
<path d="M6.09082 0.300781V3.34955L7.9254 3.56069V2.13469H23.6566V16.4549L20.2342 16.0579V17.9058L25.4913 18.5147V0.300781H6.09082ZM7.9254 14.6342V7.08808L6.09082 6.87544V16.2707L16.7315 17.5016V15.6533L7.9254 14.6342Z" fill="#FFC717"/>
<path d="M7.92559 4.40043L6.09102 4.18862L0 3.48297V21.6992H19.4003V5.72963L7.92559 4.40043ZM17.5657 19.8641H1.83458V5.54273L6.09102 6.0349L7.92559 6.24838L17.5657 7.3641V19.8641Z" fill="#FFC717"/>
<path d="M10.1069 10.139H12.0786L12.8297 8.12054L13.7216 10.139H15.6463L14.144 11.4535L14.3318 13.4474L12.8297 12.4393L11.1867 13.4474L11.6092 11.5005L10.1069 10.139Z" fill="#FFC717"/>
<path d="M42.4057 17.5014L41.2101 14.5222H35.095L33.9199 17.5014H31.5293L37.0563 3.78168H39.173L44.8364 17.5014H42.4057ZM38.1327 6.72162L35.879 12.5035H40.4262L38.1327 6.72162Z" fill="#FFC717"/>
<path d="M45.6387 5.2712V3.03674H47.8927V5.2712H45.6387ZM45.678 17.5014V6.91754H47.8534V17.5014H45.678Z" fill="#FFC717"/>
<path d="M55.047 6.8587H55.9878V8.91679H54.851C53.0479 8.91679 52.1463 9.89677 52.1462 11.8567V17.5014H49.9707V6.91755H51.4407L51.813 8.36796C52.5708 7.3619 53.6488 6.85882 55.047 6.8587Z" fill="#FFC717"/>
<path d="M62.3184 6.68237C63.5465 6.68237 64.5232 7.09396 65.2485 7.91713C65.9738 8.7403 66.3364 9.81178 66.3363 11.1316V17.5009H64.1615V11.5627C64.1615 10.609 63.9557 9.8806 63.5442 9.3774C63.1326 8.8742 62.528 8.62266 61.7305 8.62277C60.9072 8.62277 60.2277 8.9233 59.6921 9.52435C59.1565 10.1254 58.8886 10.8963 58.8885 11.837V17.5014H56.7129V6.91759H58.2221L58.6533 8.38756C59.0582 7.85193 59.5776 7.43399 60.2115 7.13375C60.8455 6.8335 61.5478 6.68304 62.3184 6.68237Z" fill="#FFC717"/>
<path d="M68.2769 5.2712V3.03674H70.531V5.2712H68.2769ZM68.316 17.5014V6.91754H70.4916V17.5014H68.316Z" fill="#FFC717"/>
<path d="M77.6847 6.8587H78.6254V8.91679H77.4886C75.6854 8.91679 74.7839 9.89677 74.7839 11.8567V17.5014H72.6084V6.91755H74.0784L74.4507 8.36796C75.2083 7.3619 76.2863 6.85882 77.6847 6.8587Z" fill="#FFC717"/>
<path d="M87.984 16.1784C86.906 17.2305 85.5569 17.7564 83.9367 17.7562C82.3164 17.756 80.9673 17.23 79.8894 16.1784C78.8114 15.1267 78.2725 13.8038 78.2725 12.2095C78.2725 11.1643 78.5177 10.217 79.008 9.3675C79.4984 8.51803 80.1779 7.85491 81.0464 7.37812C81.9157 6.90134 82.8794 6.66289 83.9373 6.66278C84.9953 6.66267 85.959 6.90112 86.8283 7.37812C87.6976 7.85524 88.3771 8.51837 88.8667 9.3675C89.3563 10.2166 89.6015 11.164 89.6022 12.2095C89.6015 13.8039 89.062 15.1268 87.984 16.1784ZM83.9367 15.6787C84.603 15.6787 85.1976 15.5317 85.7203 15.2377C86.2368 14.9497 86.6615 14.5216 86.9453 14.0028C87.2392 13.4736 87.3862 12.8758 87.3863 12.2095C87.3863 11.2034 87.0631 10.3737 86.4167 9.72024C85.7703 9.06681 84.9436 8.74015 83.9367 8.74026C82.9305 8.74026 82.1041 9.06692 81.4573 9.72024C80.8106 10.3736 80.4874 11.2033 80.4877 12.2095C80.4877 13.2156 80.8109 14.0453 81.4573 14.6985C82.1037 15.3518 82.9302 15.6785 83.9367 15.6787Z" fill="#FFC717"/>
<path d="M99.2045 10.2691C99.8056 10.5827 100.273 11.0237 100.606 11.5921C100.939 12.1605 101.106 12.8105 101.106 13.5422C101.106 14.6399 100.684 15.5741 99.8416 16.345C98.9989 17.1159 97.983 17.5014 96.7941 17.5014H90.9531V3.78168H96.6371C97.813 3.78168 98.793 4.11809 99.577 4.79091C100.361 5.46374 100.753 6.30329 100.753 7.30957C100.755 7.89027 100.613 8.46246 100.341 8.97547C100.072 9.49208 99.6823 9.93591 99.2045 10.2691ZM97.8718 7.78C97.8718 7.55799 97.8359 7.35872 97.764 7.18218C97.6947 7.00985 97.5914 6.85322 97.4602 6.72162C97.3237 6.58733 97.16 6.48377 96.9801 6.41786C96.7907 6.34609 96.5783 6.31014 96.343 6.31003H93.8735V9.23024H96.3427C96.8131 9.23024 97.1855 9.0965 97.4599 8.82902C97.7343 8.56154 97.8716 8.21187 97.8718 7.78ZM96.4998 14.7769C96.9832 14.7769 97.3752 14.6332 97.6759 14.3458C97.9766 14.0584 98.127 13.686 98.1273 13.2287C98.1273 12.7845 97.9768 12.4186 97.6759 12.1311C97.375 11.8435 96.983 11.6998 96.4998 11.6999H93.8735V14.7769H96.4998Z" fill="#FFC717"/>
<path d="M112.631 12.1702C112.63 12.4521 112.611 12.7338 112.572 13.0131H104.575C104.693 13.7318 104.977 14.2839 105.428 14.6693C105.879 15.0547 106.457 15.2474 107.162 15.2474C107.646 15.2474 108.083 15.1396 108.476 14.924C108.859 14.717 109.177 14.4084 109.397 14.0322H112.415C112.023 15.1821 111.357 16.0968 110.416 16.7762C109.475 17.4556 108.391 17.7955 107.162 17.7959C105.594 17.7959 104.288 17.2602 103.242 16.1887C102.197 15.1172 101.674 13.791 101.674 12.21C101.672 11.5991 101.761 10.9913 101.939 10.4068C102.115 9.83184 102.37 9.31572 102.703 8.85844C103.031 8.40712 103.424 8.00742 103.87 7.67267C104.314 7.33943 104.817 7.08137 105.379 6.89848C105.941 6.71559 106.535 6.62415 107.162 6.62415C108.221 6.62415 109.172 6.8724 110.014 7.36891C110.856 7.86542 111.503 8.5383 111.954 9.38755C112.405 10.2368 112.631 11.1643 112.631 12.1702ZM107.162 9.05387C106.522 9.05387 105.983 9.23029 105.545 9.58314C105.108 9.93599 104.81 10.426 104.654 11.0531H109.769C109.638 10.622 109.449 10.2594 109.201 9.9653C108.958 9.67569 108.653 9.44454 108.309 9.28908C107.962 9.13227 107.58 9.05387 107.162 9.05387Z" fill="#FFC717"/>
<path d="M118.706 14.9535H120V17.5014H117.981C117.21 17.5014 116.54 17.3509 115.972 17.05C115.414 16.7598 114.958 16.3045 114.668 15.7461C114.367 15.1777 114.217 14.5015 114.217 13.7176V9.2112H112.296V8.60319L116.49 4.15399H117.019V6.91756H119.94V9.2112H117.079V13.3463C117.079 13.8558 117.22 14.2511 117.501 14.532C117.782 14.813 118.184 14.9535 118.706 14.9535Z" fill="#FFC717"/>
</g>
<defs>
<clipPath id="clip0_388_87">
<rect width="120" height="21.3984" fill="white" transform="translate(0 0.300781)"/>
</clipPath>
</defs>
</svg>
